<?xml version="1.0" encoding="utf-8" standalone="no"?>
<!DOCTYPE svg PUBLIC "-//W3C//DTD SVG 1.1//EN"
  "http://www.w3.org/Graphics/SVG/1.1/DTD/svg11.dtd">
<svg xmlns:xlink="http://www.w3.org/1999/xlink" width="648pt" height="360pt" viewBox="0 0 648 360" xmlns="http://www.w3.org/2000/svg" version="1.1">
 <metadata>
  <rdf:RDF xmlns:dc="http://purl.org/dc/elements/1.1/" xmlns:cc="http://creativecommons.org/ns#" xmlns:rdf="http://www.w3.org/1999/02/22-rdf-syntax-ns#">
   <cc:Work>
    <dc:type rdf:resource="http://purl.org/dc/dcmitype/StillImage"/>
    <dc:date>2026-01-01T00:20:35.403287</dc:date>
    <dc:format>image/svg+xml</dc:format>
    <dc:creator>
     <cc:Agent>
      <dc:title>Matplotlib v3.10.7+dfsg1, https://matplotlib.org/</dc:title>
     </cc:Agent>
    </dc:creator>
   </cc:Work>
  </rdf:RDF>
 </metadata>
 <defs>
  <style type="text/css">*{stroke-linejoin: round; stroke-linecap: butt}</style>
 </defs>
 <g id="figure_1">
  <g id="patch_1">
   <path d="M 0 360 
L 648 360 
L 648 0 
L 0 0 
z
" style="fill: #ffffff"/>
  </g>
  <g id="axes_1">
   <g id="patch_2">
    <path d="M 77.33 317.32 
L 637.2 317.32 
L 637.2 27.6 
L 77.33 27.6 
z
" style="fill: #ffffff"/>
   </g>
   <g id="PathCollection_1">
    <defs>
     <path id="m6919faa818" d="M 0 2.12132 
C 0.562581 2.12132 1.102195 1.897805 1.5 1.5 
C 1.897805 1.102195 2.12132 0.562581 2.12132 0 
C 2.12132 -0.562581 1.897805 -1.102195 1.5 -1.5 
C 1.102195 -1.897805 0.562581 -2.12132 0 -2.12132 
C -0.562581 -2.12132 -1.102195 -1.897805 -1.5 -1.5 
C -1.897805 -1.102195 -2.12132 -0.562581 -2.12132 0 
C -2.12132 0.562581 -1.897805 1.102195 -1.5 1.5 
C -1.102195 1.897805 -0.562581 2.12132 0 2.12132 
z
" style="stroke: #1f77b4; stroke-opacity: 0.35"/>
    </defs>
    <g clip-path="url(#p71b135c425)">
     <use xlink:href="#m6919faa818" x="102.778636" y="304.150909" style="fill: #1f77b4; fill-opacity: 0.35; stroke: #1f77b4; stroke-opacity: 0.35"/>
     <use xlink:href="#m6919faa818" x="105.336288" y="302.827515" style="fill: #1f77b4; fill-opacity: 0.35; stroke: #1f77b4; stroke-opacity: 0.35"/>
     <use xlink:href="#m6919faa818" x="105.336288" y="302.827382" style="fill: #1f77b4; fill-opacity: 0.35; stroke: #1f77b4; stroke-opacity: 0.35"/>
     <use xlink:href="#m6919faa818" x="107.89394" y="301.503856" style="fill: #1f77b4; fill-opacity: 0.35; stroke: #1f77b4; stroke-opacity: 0.35"/>
     <use xlink:href="#m6919faa818" x="107.89394" y="301.503856" style="fill: #1f77b4; fill-opacity: 0.35; stroke: #1f77b4; stroke-opacity: 0.35"/>
     <use xlink:href="#m6919faa818" x="110.451592" y="300.180461" style="fill: #1f77b4; fill-opacity: 0.35; stroke: #1f77b4; stroke-opacity: 0.35"/>
     <use xlink:href="#m6919faa818" x="110.451592" y="300.180461" style="fill: #1f77b4; fill-opacity: 0.35; stroke: #1f77b4; stroke-opacity: 0.35"/>
     <use xlink:href="#m6919faa818" x="110.451592" y="300.180461" style="fill: #1f77b4; fill-opacity: 0.35; stroke: #1f77b4; stroke-opacity: 0.35"/>
     <use xlink:href="#m6919faa818" x="113.009244" y="298.857199" style="fill: #1f77b4; fill-opacity: 0.35; stroke: #1f77b4; stroke-opacity: 0.35"/>
     <use xlink:href="#m6919faa818" x="113.009244" y="298.856935" style="fill: #1f77b4; fill-opacity: 0.35; stroke: #1f77b4; stroke-opacity: 0.35"/>
     <use xlink:href="#m6919faa818" x="115.566896" y="297.534599" style="fill: #1f77b4; fill-opacity: 0.35; stroke: #1f77b4; stroke-opacity: 0.35"/>
     <use xlink:href="#m6919faa818" x="115.566896" y="297.533937" style="fill: #1f77b4; fill-opacity: 0.35; stroke: #1f77b4; stroke-opacity: 0.35"/>
     <use xlink:href="#m6919faa818" x="115.566896" y="297.533275" style="fill: #1f77b4; fill-opacity: 0.35; stroke: #1f77b4; stroke-opacity: 0.35"/>
     <use xlink:href="#m6919faa818" x="115.566896" y="297.533275" style="fill: #1f77b4; fill-opacity: 0.35; stroke: #1f77b4; stroke-opacity: 0.35"/>
     <use xlink:href="#m6919faa818" x="118.124548" y="296.209749" style="fill: #1f77b4; fill-opacity: 0.35; stroke: #1f77b4; stroke-opacity: 0.35"/>
     <use xlink:href="#m6919faa818" x="120.6822" y="294.889663" style="fill: #1f77b4; fill-opacity: 0.35; stroke: #1f77b4; stroke-opacity: 0.35"/>
     <use xlink:href="#m6919faa818" x="120.6822" y="294.887281" style="fill: #1f77b4; fill-opacity: 0.35; stroke: #1f77b4; stroke-opacity: 0.35"/>
     <use xlink:href="#m6919faa818" x="120.6822" y="294.886354" style="fill: #1f77b4; fill-opacity: 0.35; stroke: #1f77b4; stroke-opacity: 0.35"/>
     <use xlink:href="#m6919faa818" x="120.6822" y="294.886354" style="fill: #1f77b4; fill-opacity: 0.35; stroke: #1f77b4; stroke-opacity: 0.35"/>
     <use xlink:href="#m6919faa818" x="123.239852" y="293.563886" style="fill: #1f77b4; fill-opacity: 0.35; stroke: #1f77b4; stroke-opacity: 0.35"/>
     <use xlink:href="#m6919faa818" x="123.239852" y="293.56296" style="fill: #1f77b4; fill-opacity: 0.35; stroke: #1f77b4; stroke-opacity: 0.35"/>
     <use xlink:href="#m6919faa818" x="125.797503" y="292.243139" style="fill: #1f77b4; fill-opacity: 0.35; stroke: #1f77b4; stroke-opacity: 0.35"/>
     <use xlink:href="#m6919faa818" x="125.797503" y="292.240492" style="fill: #1f77b4; fill-opacity: 0.35; stroke: #1f77b4; stroke-opacity: 0.35"/>
     <use xlink:href="#m6919faa818" x="125.797503" y="292.239698" style="fill: #1f77b4; fill-opacity: 0.35; stroke: #1f77b4; stroke-opacity: 0.35"/>
     <use xlink:href="#m6919faa818" x="125.797503" y="292.239301" style="fill: #1f77b4; fill-opacity: 0.35; stroke: #1f77b4; stroke-opacity: 0.35"/>
     <use xlink:href="#m6919faa818" x="130.912807" y="289.599395" style="fill: #1f77b4; fill-opacity: 0.35; stroke: #1f77b4; stroke-opacity: 0.35"/>
     <use xlink:href="#m6919faa818" x="130.912807" y="289.5986" style="fill: #1f77b4; fill-opacity: 0.35; stroke: #1f77b4; stroke-opacity: 0.35"/>
     <use xlink:href="#m6919faa818" x="130.912807" y="289.594497" style="fill: #1f77b4; fill-opacity: 0.35; stroke: #1f77b4; stroke-opacity: 0.35"/>
     <use xlink:href="#m6919faa818" x="130.912807" y="289.593968" style="fill: #1f77b4; fill-opacity: 0.35; stroke: #1f77b4; stroke-opacity: 0.35"/>
     <use xlink:href="#m6919faa818" x="130.912807" y="289.591586" style="fill: #1f77b4; fill-opacity: 0.35; stroke: #1f77b4; stroke-opacity: 0.35"/>
     <use xlink:href="#m6919faa818" x="136.028111" y="286.962532" style="fill: #1f77b4; fill-opacity: 0.35; stroke: #1f77b4; stroke-opacity: 0.35"/>
     <use xlink:href="#m6919faa818" x="136.028111" y="286.946385" style="fill: #1f77b4; fill-opacity: 0.35; stroke: #1f77b4; stroke-opacity: 0.35"/>
     <use xlink:href="#m6919faa818" x="138.585763" y="285.635829" style="fill: #1f77b4; fill-opacity: 0.35; stroke: #1f77b4; stroke-opacity: 0.35"/>
     <use xlink:href="#m6919faa818" x="138.585763" y="285.627491" style="fill: #1f77b4; fill-opacity: 0.35; stroke: #1f77b4; stroke-opacity: 0.35"/>
     <use xlink:href="#m6919faa818" x="141.143415" y="284.319714" style="fill: #1f77b4; fill-opacity: 0.35; stroke: #1f77b4; stroke-opacity: 0.35"/>
     <use xlink:href="#m6919faa818" x="141.143415" y="284.315082" style="fill: #1f77b4; fill-opacity: 0.35; stroke: #1f77b4; stroke-opacity: 0.35"/>
     <use xlink:href="#m6919faa818" x="141.143415" y="284.298141" style="fill: #1f77b4; fill-opacity: 0.35; stroke: #1f77b4; stroke-opacity: 0.35"/>
     <use xlink:href="#m6919faa818" x="143.701067" y="282.99632" style="fill: #1f77b4; fill-opacity: 0.35; stroke: #1f77b4; stroke-opacity: 0.35"/>
     <use xlink:href="#m6919faa818" x="146.258719" y="281.681925" style="fill: #1f77b4; fill-opacity: 0.35; stroke: #1f77b4; stroke-opacity: 0.35"/>
     <use xlink:href="#m6919faa818" x="146.258719" y="281.674646" style="fill: #1f77b4; fill-opacity: 0.35; stroke: #1f77b4; stroke-opacity: 0.35"/>
     <use xlink:href="#m6919faa818" x="146.258719" y="281.66644" style="fill: #1f77b4; fill-opacity: 0.35; stroke: #1f77b4; stroke-opacity: 0.35"/>
     <use xlink:href="#m6919faa818" x="151.374022" y="279.040563" style="fill: #1f77b4; fill-opacity: 0.35; stroke: #1f77b4; stroke-opacity: 0.35"/>
     <use xlink:href="#m6919faa818" x="151.374022" y="279.038842" style="fill: #1f77b4; fill-opacity: 0.35; stroke: #1f77b4; stroke-opacity: 0.35"/>
     <use xlink:href="#m6919faa818" x="151.374022" y="279.02746" style="fill: #1f77b4; fill-opacity: 0.35; stroke: #1f77b4; stroke-opacity: 0.35"/>
     <use xlink:href="#m6919faa818" x="151.374022" y="279.014622" style="fill: #1f77b4; fill-opacity: 0.35; stroke: #1f77b4; stroke-opacity: 0.35"/>
     <use xlink:href="#m6919faa818" x="151.374022" y="279.009063" style="fill: #1f77b4; fill-opacity: 0.35; stroke: #1f77b4; stroke-opacity: 0.35"/>
     <use xlink:href="#m6919faa818" x="153.931674" y="277.678125" style="fill: #1f77b4; fill-opacity: 0.35; stroke: #1f77b4; stroke-opacity: 0.35"/>
     <use xlink:href="#m6919faa818" x="161.60463" y="273.777956" style="fill: #1f77b4; fill-opacity: 0.35; stroke: #1f77b4; stroke-opacity: 0.35"/>
     <use xlink:href="#m6919faa818" x="161.60463" y="273.7675" style="fill: #1f77b4; fill-opacity: 0.35; stroke: #1f77b4; stroke-opacity: 0.35"/>
     <use xlink:href="#m6919faa818" x="161.60463" y="273.74328" style="fill: #1f77b4; fill-opacity: 0.35; stroke: #1f77b4; stroke-opacity: 0.35"/>
     <use xlink:href="#m6919faa818" x="161.60463" y="273.718794" style="fill: #1f77b4; fill-opacity: 0.35; stroke: #1f77b4; stroke-opacity: 0.35"/>
     <use xlink:href="#m6919faa818" x="161.60463" y="273.708736" style="fill: #1f77b4; fill-opacity: 0.35; stroke: #1f77b4; stroke-opacity: 0.35"/>
     <use xlink:href="#m6919faa818" x="164.162282" y="272.423194" style="fill: #1f77b4; fill-opacity: 0.35; stroke: #1f77b4; stroke-opacity: 0.35"/>
     <use xlink:href="#m6919faa818" x="169.277586" y="269.825641" style="fill: #1f77b4; fill-opacity: 0.35; stroke: #1f77b4; stroke-opacity: 0.35"/>
     <use xlink:href="#m6919faa818" x="171.835238" y="268.538246" style="fill: #1f77b4; fill-opacity: 0.35; stroke: #1f77b4; stroke-opacity: 0.35"/>
     <use xlink:href="#m6919faa818" x="171.835238" y="268.41132" style="fill: #1f77b4; fill-opacity: 0.35; stroke: #1f77b4; stroke-opacity: 0.35"/>
     <use xlink:href="#m6919faa818" x="176.950541" y="265.877825" style="fill: #1f77b4; fill-opacity: 0.35; stroke: #1f77b4; stroke-opacity: 0.35"/>
     <use xlink:href="#m6919faa818" x="176.950541" y="265.848972" style="fill: #1f77b4; fill-opacity: 0.35; stroke: #1f77b4; stroke-opacity: 0.35"/>
     <use xlink:href="#m6919faa818" x="176.950541" y="265.814163" style="fill: #1f77b4; fill-opacity: 0.35; stroke: #1f77b4; stroke-opacity: 0.35"/>
     <use xlink:href="#m6919faa818" x="176.950541" y="265.765325" style="fill: #1f77b4; fill-opacity: 0.35; stroke: #1f77b4; stroke-opacity: 0.35"/>
     <use xlink:href="#m6919faa818" x="182.065845" y="263.155992" style="fill: #1f77b4; fill-opacity: 0.35; stroke: #1f77b4; stroke-opacity: 0.35"/>
     <use xlink:href="#m6919faa818" x="182.065845" y="263.121713" style="fill: #1f77b4; fill-opacity: 0.35; stroke: #1f77b4; stroke-opacity: 0.35"/>
     <use xlink:href="#m6919faa818" x="187.181149" y="260.629115" style="fill: #1f77b4; fill-opacity: 0.35; stroke: #1f77b4; stroke-opacity: 0.35"/>
     <use xlink:href="#m6919faa818" x="189.738801" y="259.14875" style="fill: #1f77b4; fill-opacity: 0.35; stroke: #1f77b4; stroke-opacity: 0.35"/>
     <use xlink:href="#m6919faa818" x="192.296453" y="258.024812" style="fill: #1f77b4; fill-opacity: 0.35; stroke: #1f77b4; stroke-opacity: 0.35"/>
     <use xlink:href="#m6919faa818" x="192.296453" y="257.969753" style="fill: #1f77b4; fill-opacity: 0.35; stroke: #1f77b4; stroke-opacity: 0.35"/>
     <use xlink:href="#m6919faa818" x="192.296453" y="257.860562" style="fill: #1f77b4; fill-opacity: 0.35; stroke: #1f77b4; stroke-opacity: 0.35"/>
     <use xlink:href="#m6919faa818" x="202.52706" y="252.852469" style="fill: #1f77b4; fill-opacity: 0.35; stroke: #1f77b4; stroke-opacity: 0.35"/>
     <use xlink:href="#m6919faa818" x="202.52706" y="252.761146" style="fill: #1f77b4; fill-opacity: 0.35; stroke: #1f77b4; stroke-opacity: 0.35"/>
     <use xlink:href="#m6919faa818" x="202.52706" y="252.627734" style="fill: #1f77b4; fill-opacity: 0.35; stroke: #1f77b4; stroke-opacity: 0.35"/>
     <use xlink:href="#m6919faa818" x="202.52706" y="252.536014" style="fill: #1f77b4; fill-opacity: 0.35; stroke: #1f77b4; stroke-opacity: 0.35"/>
     <use xlink:href="#m6919faa818" x="202.52706" y="252.533499" style="fill: #1f77b4; fill-opacity: 0.35; stroke: #1f77b4; stroke-opacity: 0.35"/>
     <use xlink:href="#m6919faa818" x="207.642364" y="250.084842" style="fill: #1f77b4; fill-opacity: 0.35; stroke: #1f77b4; stroke-opacity: 0.35"/>
     <use xlink:href="#m6919faa818" x="207.642364" y="249.87599" style="fill: #1f77b4; fill-opacity: 0.35; stroke: #1f77b4; stroke-opacity: 0.35"/>
     <use xlink:href="#m6919faa818" x="215.31532" y="246.136365" style="fill: #1f77b4; fill-opacity: 0.35; stroke: #1f77b4; stroke-opacity: 0.35"/>
     <use xlink:href="#m6919faa818" x="222.988275" y="242.206417" style="fill: #1f77b4; fill-opacity: 0.35; stroke: #1f77b4; stroke-opacity: 0.35"/>
     <use xlink:href="#m6919faa818" x="222.988275" y="242.078697" style="fill: #1f77b4; fill-opacity: 0.35; stroke: #1f77b4; stroke-opacity: 0.35"/>
     <use xlink:href="#m6919faa818" x="222.988275" y="242.046932" style="fill: #1f77b4; fill-opacity: 0.35; stroke: #1f77b4; stroke-opacity: 0.35"/>
     <use xlink:href="#m6919faa818" x="228.103579" y="239.961319" style="fill: #1f77b4; fill-opacity: 0.35; stroke: #1f77b4; stroke-opacity: 0.35"/>
     <use xlink:href="#m6919faa818" x="228.103579" y="239.298232" style="fill: #1f77b4; fill-opacity: 0.35; stroke: #1f77b4; stroke-opacity: 0.35"/>
     <use xlink:href="#m6919faa818" x="230.661231" y="238.29116" style="fill: #1f77b4; fill-opacity: 0.35; stroke: #1f77b4; stroke-opacity: 0.35"/>
     <use xlink:href="#m6919faa818" x="238.334187" y="234.558286" style="fill: #1f77b4; fill-opacity: 0.35; stroke: #1f77b4; stroke-opacity: 0.35"/>
     <use xlink:href="#m6919faa818" x="243.449491" y="231.590806" style="fill: #1f77b4; fill-opacity: 0.35; stroke: #1f77b4; stroke-opacity: 0.35"/>
     <use xlink:href="#m6919faa818" x="243.449491" y="231.348204" style="fill: #1f77b4; fill-opacity: 0.35; stroke: #1f77b4; stroke-opacity: 0.35"/>
     <use xlink:href="#m6919faa818" x="253.680098" y="227.042507" style="fill: #1f77b4; fill-opacity: 0.35; stroke: #1f77b4; stroke-opacity: 0.35"/>
     <use xlink:href="#m6919faa818" x="253.680098" y="226.755037" style="fill: #1f77b4; fill-opacity: 0.35; stroke: #1f77b4; stroke-opacity: 0.35"/>
     <use xlink:href="#m6919faa818" x="253.680098" y="226.43739" style="fill: #1f77b4; fill-opacity: 0.35; stroke: #1f77b4; stroke-opacity: 0.35"/>
     <use xlink:href="#m6919faa818" x="253.680098" y="226.398479" style="fill: #1f77b4; fill-opacity: 0.35; stroke: #1f77b4; stroke-opacity: 0.35"/>
     <use xlink:href="#m6919faa818" x="263.910706" y="221.507915" style="fill: #1f77b4; fill-opacity: 0.35; stroke: #1f77b4; stroke-opacity: 0.35"/>
     <use xlink:href="#m6919faa818" x="274.141313" y="216.301823" style="fill: #1f77b4; fill-opacity: 0.35; stroke: #1f77b4; stroke-opacity: 0.35"/>
     <use xlink:href="#m6919faa818" x="279.256617" y="213.220388" style="fill: #1f77b4; fill-opacity: 0.35; stroke: #1f77b4; stroke-opacity: 0.35"/>
     <use xlink:href="#m6919faa818" x="279.256617" y="212.823197" style="fill: #1f77b4; fill-opacity: 0.35; stroke: #1f77b4; stroke-opacity: 0.35"/>
     <use xlink:href="#m6919faa818" x="284.371921" y="210.667172" style="fill: #1f77b4; fill-opacity: 0.35; stroke: #1f77b4; stroke-opacity: 0.35"/>
     <use xlink:href="#m6919faa818" x="284.371921" y="210.250526" style="fill: #1f77b4; fill-opacity: 0.35; stroke: #1f77b4; stroke-opacity: 0.35"/>
     <use xlink:href="#m6919faa818" x="304.833136" y="201.439544" style="fill: #1f77b4; fill-opacity: 0.35; stroke: #1f77b4; stroke-opacity: 0.35"/>
     <use xlink:href="#m6919faa818" x="304.833136" y="200.524061" style="fill: #1f77b4; fill-opacity: 0.35; stroke: #1f77b4; stroke-opacity: 0.35"/>
     <use xlink:href="#m6919faa818" x="304.833136" y="200.460928" style="fill: #1f77b4; fill-opacity: 0.35; stroke: #1f77b4; stroke-opacity: 0.35"/>
     <use xlink:href="#m6919faa818" x="315.063744" y="194.563823" style="fill: #1f77b4; fill-opacity: 0.35; stroke: #1f77b4; stroke-opacity: 0.35"/>
     <use xlink:href="#m6919faa818" x="315.063744" y="194.253853" style="fill: #1f77b4; fill-opacity: 0.35; stroke: #1f77b4; stroke-opacity: 0.35"/>
     <use xlink:href="#m6919faa818" x="317.621396" y="193.383634" style="fill: #1f77b4; fill-opacity: 0.35; stroke: #1f77b4; stroke-opacity: 0.35"/>
     <use xlink:href="#m6919faa818" x="330.409655" y="186.55556" style="fill: #1f77b4; fill-opacity: 0.35; stroke: #1f77b4; stroke-opacity: 0.35"/>
     <use xlink:href="#m6919faa818" x="345.755566" y="179.268221" style="fill: #1f77b4; fill-opacity: 0.35; stroke: #1f77b4; stroke-opacity: 0.35"/>
     <use xlink:href="#m6919faa818" x="350.87087" y="175.717464" style="fill: #1f77b4; fill-opacity: 0.35; stroke: #1f77b4; stroke-opacity: 0.35"/>
     <use xlink:href="#m6919faa818" x="355.986174" y="179.558603" style="fill: #1f77b4; fill-opacity: 0.35; stroke: #1f77b4; stroke-opacity: 0.35"/>
     <use xlink:href="#m6919faa818" x="355.986174" y="173.411351" style="fill: #1f77b4; fill-opacity: 0.35; stroke: #1f77b4; stroke-opacity: 0.35"/>
     <use xlink:href="#m6919faa818" x="361.101478" y="170.505548" style="fill: #1f77b4; fill-opacity: 0.35; stroke: #1f77b4; stroke-opacity: 0.35"/>
     <use xlink:href="#m6919faa818" x="376.447389" y="170.882091" style="fill: #1f77b4; fill-opacity: 0.35; stroke: #1f77b4; stroke-opacity: 0.35"/>
     <use xlink:href="#m6919faa818" x="386.677997" y="171.337782" style="fill: #1f77b4; fill-opacity: 0.35; stroke: #1f77b4; stroke-opacity: 0.35"/>
     <use xlink:href="#m6919faa818" x="404.58156" y="163.801488" style="fill: #1f77b4; fill-opacity: 0.35; stroke: #1f77b4; stroke-opacity: 0.35"/>
     <use xlink:href="#m6919faa818" x="407.139212" y="183.429522" style="fill: #1f77b4; fill-opacity: 0.35; stroke: #1f77b4; stroke-opacity: 0.35"/>
     <use xlink:href="#m6919faa818" x="407.139212" y="170.83365" style="fill: #1f77b4; fill-opacity: 0.35; stroke: #1f77b4; stroke-opacity: 0.35"/>
     <use xlink:href="#m6919faa818" x="422.485123" y="171.751384" style="fill: #1f77b4; fill-opacity: 0.35; stroke: #1f77b4; stroke-opacity: 0.35"/>
     <use xlink:href="#m6919faa818" x="448.061642" y="171.082473" style="fill: #1f77b4; fill-opacity: 0.35; stroke: #1f77b4; stroke-opacity: 0.35"/>
     <use xlink:href="#m6919faa818" x="458.29225" y="182.036775" style="fill: #1f77b4; fill-opacity: 0.35; stroke: #1f77b4; stroke-opacity: 0.35"/>
     <use xlink:href="#m6919faa818" x="458.29225" y="164.812795" style="fill: #1f77b4; fill-opacity: 0.35; stroke: #1f77b4; stroke-opacity: 0.35"/>
     <use xlink:href="#m6919faa818" x="491.541725" y="170.959253" style="fill: #1f77b4; fill-opacity: 0.35; stroke: #1f77b4; stroke-opacity: 0.35"/>
     <use xlink:href="#m6919faa818" x="509.445288" y="171.26512" style="fill: #1f77b4; fill-opacity: 0.35; stroke: #1f77b4; stroke-opacity: 0.35"/>
     <use xlink:href="#m6919faa818" x="535.021807" y="169.539771" style="fill: #1f77b4; fill-opacity: 0.35; stroke: #1f77b4; stroke-opacity: 0.35"/>
     <use xlink:href="#m6919faa818" x="560.598326" y="171.178958" style="fill: #1f77b4; fill-opacity: 0.35; stroke: #1f77b4; stroke-opacity: 0.35"/>
     <use xlink:href="#m6919faa818" x="611.751364" y="174.627804" style="fill: #1f77b4; fill-opacity: 0.35; stroke: #1f77b4; stroke-opacity: 0.35"/>
    </g>
   </g>
   <g id="matplotlib.axis_1">
    <g id="xtick_1">
     <g id="line2d_1">
      <path d="M 100.220984 317.32 
L 100.220984 27.6 
" clip-path="url(#p71b135c425)" style="fill: none; stroke-dasharray: 2.96,1.28; stroke-dashoffset: 0; stroke: #b0b0b0; stroke-opacity: 0.4; stroke-width: 0.8"/>
     </g>
     <g id="line2d_2">
      <defs>
       <path id="m6297b3ad81" d="M 0 0 
L 0 3.5 
" style="stroke: #000000; stroke-width: 0.8"/>
      </defs>
      <g>
       <use xlink:href="#m6297b3ad81" x="100.220984" y="317.32" style="stroke: #000000; stroke-width: 0.8"/>
      </g>
     </g>
     <g id="text_1">
      <!-- 0 -->
      <g transform="translate(97.039734 331.918437) scale(0.1 -0.1)">
       <defs>
        <path id="DejaVuSans-30" d="M 2034 4250 
Q 1547 4250 1301 3770 
Q 1056 3291 1056 2328 
Q 1056 1369 1301 889 
Q 1547 409 2034 409 
Q 2525 409 2770 889 
Q 3016 1369 3016 2328 
Q 3016 3291 2770 3770 
Q 2525 4250 2034 4250 
z
M 2034 4750 
Q 2819 4750 3233 4129 
Q 3647 3509 3647 2328 
Q 3647 1150 3233 529 
Q 2819 -91 2034 -91 
Q 1250 -91 836 529 
Q 422 1150 422 2328 
Q 422 3509 836 4129 
Q 1250 4750 2034 4750 
z
" transform="scale(0.015625)"/>
       </defs>
       <use xlink:href="#DejaVuSans-30"/>
      </g>
     </g>
    </g>
    <g id="xtick_2">
     <g id="line2d_3">
      <path d="M 164.162282 317.32 
L 164.162282 27.6 
" clip-path="url(#p71b135c425)" style="fill: none; stroke-dasharray: 2.96,1.28; stroke-dashoffset: 0; stroke: #b0b0b0; stroke-opacity: 0.4; stroke-width: 0.8"/>
     </g>
     <g id="line2d_4">
      <g>
       <use xlink:href="#m6297b3ad81" x="164.162282" y="317.32" style="stroke: #000000; stroke-width: 0.8"/>
      </g>
     </g>
     <g id="text_2">
      <!-- 250000 -->
      <g transform="translate(145.074782 331.918437) scale(0.1 -0.1)">
       <defs>
        <path id="DejaVuSans-32" d="M 1228 531 
L 3431 531 
L 3431 0 
L 469 0 
L 469 531 
Q 828 903 1448 1529 
Q 2069 2156 2228 2338 
Q 2531 2678 2651 2914 
Q 2772 3150 2772 3378 
Q 2772 3750 2511 3984 
Q 2250 4219 1831 4219 
Q 1534 4219 1204 4116 
Q 875 4013 500 3803 
L 500 4441 
Q 881 4594 1212 4672 
Q 1544 4750 1819 4750 
Q 2544 4750 2975 4387 
Q 3406 4025 3406 3419 
Q 3406 3131 3298 2873 
Q 3191 2616 2906 2266 
Q 2828 2175 2409 1742 
Q 1991 1309 1228 531 
z
" transform="scale(0.015625)"/>
        <path id="DejaVuSans-35" d="M 691 4666 
L 3169 4666 
L 3169 4134 
L 1269 4134 
L 1269 2991 
Q 1406 3038 1543 3061 
Q 1681 3084 1819 3084 
Q 2600 3084 3056 2656 
Q 3513 2228 3513 1497 
Q 3513 744 3044 326 
Q 2575 -91 1722 -91 
Q 1428 -91 1123 -41 
Q 819 9 494 109 
L 494 744 
Q 775 591 1075 516 
Q 1375 441 1709 441 
Q 2250 441 2565 725 
Q 2881 1009 2881 1497 
Q 2881 1984 2565 2268 
Q 2250 2553 1709 2553 
Q 1456 2553 1204 2497 
Q 953 2441 691 2322 
L 691 4666 
z
" transform="scale(0.015625)"/>
       </defs>
       <use xlink:href="#DejaVuSans-32"/>
       <use xlink:href="#DejaVuSans-35" transform="translate(63.623047 0)"/>
       <use xlink:href="#DejaVuSans-30" transform="translate(127.246094 0)"/>
       <use xlink:href="#DejaVuSans-30" transform="translate(190.869141 0)"/>
       <use xlink:href="#DejaVuSans-30" transform="translate(254.492188 0)"/>
       <use xlink:href="#DejaVuSans-30" transform="translate(318.115234 0)"/>
      </g>
     </g>
    </g>
    <g id="xtick_3">
     <g id="line2d_5">
      <path d="M 228.103579 317.32 
L 228.103579 27.6 
" clip-path="url(#p71b135c425)" style="fill: none; stroke-dasharray: 2.96,1.28; stroke-dashoffset: 0; stroke: #b0b0b0; stroke-opacity: 0.4; stroke-width: 0.8"/>
     </g>
     <g id="line2d_6">
      <g>
       <use xlink:href="#m6297b3ad81" x="228.103579" y="317.32" style="stroke: #000000; stroke-width: 0.8"/>
      </g>
     </g>
     <g id="text_3">
      <!-- 500000 -->
      <g transform="translate(209.016079 331.918437) scale(0.1 -0.1)">
       <use xlink:href="#DejaVuSans-35"/>
       <use xlink:href="#DejaVuSans-30" transform="translate(63.623047 0)"/>
       <use xlink:href="#DejaVuSans-30" transform="translate(127.246094 0)"/>
       <use xlink:href="#DejaVuSans-30" transform="translate(190.869141 0)"/>
       <use xlink:href="#DejaVuSans-30" transform="translate(254.492188 0)"/>
       <use xlink:href="#DejaVuSans-30" transform="translate(318.115234 0)"/>
      </g>
     </g>
    </g>
    <g id="xtick_4">
     <g id="line2d_7">
      <path d="M 292.044877 317.32 
L 292.044877 27.6 
" clip-path="url(#p71b135c425)" style="fill: none; stroke-dasharray: 2.96,1.28; stroke-dashoffset: 0; stroke: #b0b0b0; stroke-opacity: 0.4; stroke-width: 0.8"/>
     </g>
     <g id="line2d_8">
      <g>
       <use xlink:href="#m6297b3ad81" x="292.044877" y="317.32" style="stroke: #000000; stroke-width: 0.8"/>
      </g>
     </g>
     <g id="text_4">
      <!-- 750000 -->
      <g transform="translate(272.957377 331.918437) scale(0.1 -0.1)">
       <defs>
        <path id="DejaVuSans-37" d="M 525 4666 
L 3525 4666 
L 3525 4397 
L 1831 0 
L 1172 0 
L 2766 4134 
L 525 4134 
L 525 4666 
z
" transform="scale(0.015625)"/>
       </defs>
       <use xlink:href="#DejaVuSans-37"/>
       <use xlink:href="#DejaVuSans-35" transform="translate(63.623047 0)"/>
       <use xlink:href="#DejaVuSans-30" transform="translate(127.246094 0)"/>
       <use xlink:href="#DejaVuSans-30" transform="translate(190.869141 0)"/>
       <use xlink:href="#DejaVuSans-30" transform="translate(254.492188 0)"/>
       <use xlink:href="#DejaVuSans-30" transform="translate(318.115234 0)"/>
      </g>
     </g>
    </g>
    <g id="xtick_5">
     <g id="line2d_9">
      <path d="M 355.986174 317.32 
L 355.986174 27.6 
" clip-path="url(#p71b135c425)" style="fill: none; stroke-dasharray: 2.96,1.28; stroke-dashoffset: 0; stroke: #b0b0b0; stroke-opacity: 0.4; stroke-width: 0.8"/>
     </g>
     <g id="line2d_10">
      <g>
       <use xlink:href="#m6297b3ad81" x="355.986174" y="317.32" style="stroke: #000000; stroke-width: 0.8"/>
      </g>
     </g>
     <g id="text_5">
      <!-- 1000000 -->
      <g transform="translate(333.717424 331.918437) scale(0.1 -0.1)">
       <defs>
        <path id="DejaVuSans-31" d="M 794 531 
L 1825 531 
L 1825 4091 
L 703 3866 
L 703 4441 
L 1819 4666 
L 2450 4666 
L 2450 531 
L 3481 531 
L 3481 0 
L 794 0 
L 794 531 
z
" transform="scale(0.015625)"/>
       </defs>
       <use xlink:href="#DejaVuSans-31"/>
       <use xlink:href="#DejaVuSans-30" transform="translate(63.623047 0)"/>
       <use xlink:href="#DejaVuSans-30" transform="translate(127.246094 0)"/>
       <use xlink:href="#DejaVuSans-30" transform="translate(190.869141 0)"/>
       <use xlink:href="#DejaVuSans-30" transform="translate(254.492188 0)"/>
       <use xlink:href="#DejaVuSans-30" transform="translate(318.115234 0)"/>
       <use xlink:href="#DejaVuSans-30" transform="translate(381.738281 0)"/>
      </g>
     </g>
    </g>
    <g id="xtick_6">
     <g id="line2d_11">
      <path d="M 419.927471 317.32 
L 419.927471 27.6 
" clip-path="url(#p71b135c425)" style="fill: none; stroke-dasharray: 2.96,1.28; stroke-dashoffset: 0; stroke: #b0b0b0; stroke-opacity: 0.4; stroke-width: 0.8"/>
     </g>
     <g id="line2d_12">
      <g>
       <use xlink:href="#m6297b3ad81" x="419.927471" y="317.32" style="stroke: #000000; stroke-width: 0.8"/>
      </g>
     </g>
     <g id="text_6">
      <!-- 1250000 -->
      <g transform="translate(397.658721 331.918437) scale(0.1 -0.1)">
       <use xlink:href="#DejaVuSans-31"/>
       <use xlink:href="#DejaVuSans-32" transform="translate(63.623047 0)"/>
       <use xlink:href="#DejaVuSans-35" transform="translate(127.246094 0)"/>
       <use xlink:href="#DejaVuSans-30" transform="translate(190.869141 0)"/>
       <use xlink:href="#DejaVuSans-30" transform="translate(254.492188 0)"/>
       <use xlink:href="#DejaVuSans-30" transform="translate(318.115234 0)"/>
       <use xlink:href="#DejaVuSans-30" transform="translate(381.738281 0)"/>
      </g>
     </g>
    </g>
    <g id="xtick_7">
     <g id="line2d_13">
      <path d="M 483.868769 317.32 
L 483.868769 27.6 
" clip-path="url(#p71b135c425)" style="fill: none; stroke-dasharray: 2.96,1.28; stroke-dashoffset: 0; stroke: #b0b0b0; stroke-opacity: 0.4; stroke-width: 0.8"/>
     </g>
     <g id="line2d_14">
      <g>
       <use xlink:href="#m6297b3ad81" x="483.868769" y="317.32" style="stroke: #000000; stroke-width: 0.8"/>
      </g>
     </g>
     <g id="text_7">
      <!-- 1500000 -->
      <g transform="translate(461.600019 331.918437) scale(0.1 -0.1)">
       <use xlink:href="#DejaVuSans-31"/>
       <use xlink:href="#DejaVuSans-35" transform="translate(63.623047 0)"/>
       <use xlink:href="#DejaVuSans-30" transform="translate(127.246094 0)"/>
       <use xlink:href="#DejaVuSans-30" transform="translate(190.869141 0)"/>
       <use xlink:href="#DejaVuSans-30" transform="translate(254.492188 0)"/>
       <use xlink:href="#DejaVuSans-30" transform="translate(318.115234 0)"/>
       <use xlink:href="#DejaVuSans-30" transform="translate(381.738281 0)"/>
      </g>
     </g>
    </g>
    <g id="xtick_8">
     <g id="line2d_15">
      <path d="M 547.810066 317.32 
L 547.810066 27.6 
" clip-path="url(#p71b135c425)" style="fill: none; stroke-dasharray: 2.96,1.28; stroke-dashoffset: 0; stroke: #b0b0b0; stroke-opacity: 0.4; stroke-width: 0.8"/>
     </g>
     <g id="line2d_16">
      <g>
       <use xlink:href="#m6297b3ad81" x="547.810066" y="317.32" style="stroke: #000000; stroke-width: 0.8"/>
      </g>
     </g>
     <g id="text_8">
      <!-- 1750000 -->
      <g transform="translate(525.541316 331.918437) scale(0.1 -0.1)">
       <use xlink:href="#DejaVuSans-31"/>
       <use xlink:href="#DejaVuSans-37" transform="translate(63.623047 0)"/>
       <use xlink:href="#DejaVuSans-35" transform="translate(127.246094 0)"/>
       <use xlink:href="#DejaVuSans-30" transform="translate(190.869141 0)"/>
       <use xlink:href="#DejaVuSans-30" transform="translate(254.492188 0)"/>
       <use xlink:href="#DejaVuSans-30" transform="translate(318.115234 0)"/>
       <use xlink:href="#DejaVuSans-30" transform="translate(381.738281 0)"/>
      </g>
     </g>
    </g>
    <g id="xtick_9">
     <g id="line2d_17">
      <path d="M 611.751364 317.32 
L 611.751364 27.6 
" clip-path="url(#p71b135c425)" style="fill: none; stroke-dasharray: 2.96,1.28; stroke-dashoffset: 0; stroke: #b0b0b0; stroke-opacity: 0.4; stroke-width: 0.8"/>
     </g>
     <g id="line2d_18">
      <g>
       <use xlink:href="#m6297b3ad81" x="611.751364" y="317.32" style="stroke: #000000; stroke-width: 0.8"/>
      </g>
     </g>
     <g id="text_9">
      <!-- 2000000 -->
      <g transform="translate(589.482614 331.918437) scale(0.1 -0.1)">
       <use xlink:href="#DejaVuSans-32"/>
       <use xlink:href="#DejaVuSans-30" transform="translate(63.623047 0)"/>
       <use xlink:href="#DejaVuSans-30" transform="translate(127.246094 0)"/>
       <use xlink:href="#DejaVuSans-30" transform="translate(190.869141 0)"/>
       <use xlink:href="#DejaVuSans-30" transform="translate(254.492188 0)"/>
       <use xlink:href="#DejaVuSans-30" transform="translate(318.115234 0)"/>
       <use xlink:href="#DejaVuSans-30" transform="translate(381.738281 0)"/>
      </g>
     </g>
    </g>
    <g id="text_10">
     <!-- Expected Packets per Second (pps) -->
     <g transform="translate(251.415625 347.11625) scale(0.12 -0.12)">
      <defs>
       <path id="DejaVuSans-45" d="M 628 4666 
L 3578 4666 
L 3578 4134 
L 1259 4134 
L 1259 2753 
L 3481 2753 
L 3481 2222 
L 1259 2222 
L 1259 531 
L 3634 531 
L 3634 0 
L 628 0 
L 628 4666 
z
" transform="scale(0.015625)"/>
       <path id="DejaVuSans-78" d="M 3513 3500 
L 2247 1797 
L 3578 0 
L 2900 0 
L 1881 1375 
L 863 0 
L 184 0 
L 1544 1831 
L 300 3500 
L 978 3500 
L 1906 2253 
L 2834 3500 
L 3513 3500 
z
" transform="scale(0.015625)"/>
       <path id="DejaVuSans-70" d="M 1159 525 
L 1159 -1331 
L 581 -1331 
L 581 3500 
L 1159 3500 
L 1159 2969 
Q 1341 3281 1617 3432 
Q 1894 3584 2278 3584 
Q 2916 3584 3314 3078 
Q 3713 2572 3713 1747 
Q 3713 922 3314 415 
Q 2916 -91 2278 -91 
Q 1894 -91 1617 61 
Q 1341 213 1159 525 
z
M 3116 1747 
Q 3116 2381 2855 2742 
Q 2594 3103 2138 3103 
Q 1681 3103 1420 2742 
Q 1159 2381 1159 1747 
Q 1159 1113 1420 752 
Q 1681 391 2138 391 
Q 2594 391 2855 752 
Q 3116 1113 3116 1747 
z
" transform="scale(0.015625)"/>
       <path id="DejaVuSans-65" d="M 3597 1894 
L 3597 1613 
L 953 1613 
Q 991 1019 1311 708 
Q 1631 397 2203 397 
Q 2534 397 2845 478 
Q 3156 559 3463 722 
L 3463 178 
Q 3153 47 2828 -22 
Q 2503 -91 2169 -91 
Q 1331 -91 842 396 
Q 353 884 353 1716 
Q 353 2575 817 3079 
Q 1281 3584 2069 3584 
Q 2775 3584 3186 3129 
Q 3597 2675 3597 1894 
z
M 3022 2063 
Q 3016 2534 2758 2815 
Q 2500 3097 2075 3097 
Q 1594 3097 1305 2825 
Q 1016 2553 972 2059 
L 3022 2063 
z
" transform="scale(0.015625)"/>
       <path id="DejaVuSans-63" d="M 3122 3366 
L 3122 2828 
Q 2878 2963 2633 3030 
Q 2388 3097 2138 3097 
Q 1578 3097 1268 2742 
Q 959 2388 959 1747 
Q 959 1106 1268 751 
Q 1578 397 2138 397 
Q 2388 397 2633 464 
Q 2878 531 3122 666 
L 3122 134 
Q 2881 22 2623 -34 
Q 2366 -91 2075 -91 
Q 1284 -91 818 406 
Q 353 903 353 1747 
Q 353 2603 823 3093 
Q 1294 3584 2113 3584 
Q 2378 3584 2631 3529 
Q 2884 3475 3122 3366 
z
" transform="scale(0.015625)"/>
       <path id="DejaVuSans-74" d="M 1172 4494 
L 1172 3500 
L 2356 3500 
L 2356 3053 
L 1172 3053 
L 1172 1153 
Q 1172 725 1289 603 
Q 1406 481 1766 481 
L 2356 481 
L 2356 0 
L 1766 0 
Q 1100 0 847 248 
Q 594 497 594 1153 
L 594 3053 
L 172 3053 
L 172 3500 
L 594 3500 
L 594 4494 
L 1172 4494 
z
" transform="scale(0.015625)"/>
       <path id="DejaVuSans-64" d="M 2906 2969 
L 2906 4863 
L 3481 4863 
L 3481 0 
L 2906 0 
L 2906 525 
Q 2725 213 2448 61 
Q 2172 -91 1784 -91 
Q 1150 -91 751 415 
Q 353 922 353 1747 
Q 353 2572 751 3078 
Q 1150 3584 1784 3584 
Q 2172 3584 2448 3432 
Q 2725 3281 2906 2969 
z
M 947 1747 
Q 947 1113 1208 752 
Q 1469 391 1925 391 
Q 2381 391 2643 752 
Q 2906 1113 2906 1747 
Q 2906 2381 2643 2742 
Q 2381 3103 1925 3103 
Q 1469 3103 1208 2742 
Q 947 2381 947 1747 
z
" transform="scale(0.015625)"/>
       <path id="DejaVuSans-20" transform="scale(0.015625)"/>
       <path id="DejaVuSans-50" d="M 1259 4147 
L 1259 2394 
L 2053 2394 
Q 2494 2394 2734 2622 
Q 2975 2850 2975 3272 
Q 2975 3691 2734 3919 
Q 2494 4147 2053 4147 
L 1259 4147 
z
M 628 4666 
L 2053 4666 
Q 2838 4666 3239 4311 
Q 3641 3956 3641 3272 
Q 3641 2581 3239 2228 
Q 2838 1875 2053 1875 
L 1259 1875 
L 1259 0 
L 628 0 
L 628 4666 
z
" transform="scale(0.015625)"/>
       <path id="DejaVuSans-61" d="M 2194 1759 
Q 1497 1759 1228 1600 
Q 959 1441 959 1056 
Q 959 750 1161 570 
Q 1363 391 1709 391 
Q 2188 391 2477 730 
Q 2766 1069 2766 1631 
L 2766 1759 
L 2194 1759 
z
M 3341 1997 
L 3341 0 
L 2766 0 
L 2766 531 
Q 2569 213 2275 61 
Q 1981 -91 1556 -91 
Q 1019 -91 701 211 
Q 384 513 384 1019 
Q 384 1609 779 1909 
Q 1175 2209 1959 2209 
L 2766 2209 
L 2766 2266 
Q 2766 2663 2505 2880 
Q 2244 3097 1772 3097 
Q 1472 3097 1187 3025 
Q 903 2953 641 2809 
L 641 3341 
Q 956 3463 1253 3523 
Q 1550 3584 1831 3584 
Q 2591 3584 2966 3190 
Q 3341 2797 3341 1997 
z
" transform="scale(0.015625)"/>
       <path id="DejaVuSans-6b" d="M 581 4863 
L 1159 4863 
L 1159 1991 
L 2875 3500 
L 3609 3500 
L 1753 1863 
L 3688 0 
L 2938 0 
L 1159 1709 
L 1159 0 
L 581 0 
L 581 4863 
z
" transform="scale(0.015625)"/>
       <path id="DejaVuSans-73" d="M 2834 3397 
L 2834 2853 
Q 2591 2978 2328 3040 
Q 2066 3103 1784 3103 
Q 1356 3103 1142 2972 
Q 928 2841 928 2578 
Q 928 2378 1081 2264 
Q 1234 2150 1697 2047 
L 1894 2003 
Q 2506 1872 2764 1633 
Q 3022 1394 3022 966 
Q 3022 478 2636 193 
Q 2250 -91 1575 -91 
Q 1294 -91 989 -36 
Q 684 19 347 128 
L 347 722 
Q 666 556 975 473 
Q 1284 391 1588 391 
Q 1994 391 2212 530 
Q 2431 669 2431 922 
Q 2431 1156 2273 1281 
Q 2116 1406 1581 1522 
L 1381 1569 
Q 847 1681 609 1914 
Q 372 2147 372 2553 
Q 372 3047 722 3315 
Q 1072 3584 1716 3584 
Q 2034 3584 2315 3537 
Q 2597 3491 2834 3397 
z
" transform="scale(0.015625)"/>
       <path id="DejaVuSans-72" d="M 2631 2963 
Q 2534 3019 2420 3045 
Q 2306 3072 2169 3072 
Q 1681 3072 1420 2755 
Q 1159 2438 1159 1844 
L 1159 0 
L 581 0 
L 581 3500 
L 1159 3500 
L 1159 2956 
Q 1341 3275 1631 3429 
Q 1922 3584 2338 3584 
Q 2397 3584 2469 3576 
Q 2541 3569 2628 3553 
L 2631 2963 
z
" transform="scale(0.015625)"/>
       <path id="DejaVuSans-53" d="M 3425 4513 
L 3425 3897 
Q 3066 4069 2747 4153 
Q 2428 4238 2131 4238 
Q 1616 4238 1336 4038 
Q 1056 3838 1056 3469 
Q 1056 3159 1242 3001 
Q 1428 2844 1947 2747 
L 2328 2669 
Q 3034 2534 3370 2195 
Q 3706 1856 3706 1288 
Q 3706 609 3251 259 
Q 2797 -91 1919 -91 
Q 1588 -91 1214 -16 
Q 841 59 441 206 
L 441 856 
Q 825 641 1194 531 
Q 1563 422 1919 422 
Q 2459 422 2753 634 
Q 3047 847 3047 1241 
Q 3047 1584 2836 1778 
Q 2625 1972 2144 2069 
L 1759 2144 
Q 1053 2284 737 2584 
Q 422 2884 422 3419 
Q 422 4038 858 4394 
Q 1294 4750 2059 4750 
Q 2388 4750 2728 4690 
Q 3069 4631 3425 4513 
z
" transform="scale(0.015625)"/>
       <path id="DejaVuSans-6f" d="M 1959 3097 
Q 1497 3097 1228 2736 
Q 959 2375 959 1747 
Q 959 1119 1226 758 
Q 1494 397 1959 397 
Q 2419 397 2687 759 
Q 2956 1122 2956 1747 
Q 2956 2369 2687 2733 
Q 2419 3097 1959 3097 
z
M 1959 3584 
Q 2709 3584 3137 3096 
Q 3566 2609 3566 1747 
Q 3566 888 3137 398 
Q 2709 -91 1959 -91 
Q 1206 -91 779 398 
Q 353 888 353 1747 
Q 353 2609 779 3096 
Q 1206 3584 1959 3584 
z
" transform="scale(0.015625)"/>
       <path id="DejaVuSans-6e" d="M 3513 2113 
L 3513 0 
L 2938 0 
L 2938 2094 
Q 2938 2591 2744 2837 
Q 2550 3084 2163 3084 
Q 1697 3084 1428 2787 
Q 1159 2491 1159 1978 
L 1159 0 
L 581 0 
L 581 3500 
L 1159 3500 
L 1159 2956 
Q 1366 3272 1645 3428 
Q 1925 3584 2291 3584 
Q 2894 3584 3203 3211 
Q 3513 2838 3513 2113 
z
" transform="scale(0.015625)"/>
       <path id="DejaVuSans-28" d="M 1984 4856 
Q 1566 4138 1362 3434 
Q 1159 2731 1159 2009 
Q 1159 1288 1364 580 
Q 1569 -128 1984 -844 
L 1484 -844 
Q 1016 -109 783 600 
Q 550 1309 550 2009 
Q 550 2706 781 3412 
Q 1013 4119 1484 4856 
L 1984 4856 
z
" transform="scale(0.015625)"/>
       <path id="DejaVuSans-29" d="M 513 4856 
L 1013 4856 
Q 1481 4119 1714 3412 
Q 1947 2706 1947 2009 
Q 1947 1309 1714 600 
Q 1481 -109 1013 -844 
L 513 -844 
Q 928 -128 1133 580 
Q 1338 1288 1338 2009 
Q 1338 2731 1133 3434 
Q 928 4138 513 4856 
z
" transform="scale(0.015625)"/>
      </defs>
      <use xlink:href="#DejaVuSans-45"/>
      <use xlink:href="#DejaVuSans-78" transform="translate(63.183594 0)"/>
      <use xlink:href="#DejaVuSans-70" transform="translate(122.363281 0)"/>
      <use xlink:href="#DejaVuSans-65" transform="translate(185.839844 0)"/>
      <use xlink:href="#DejaVuSans-63" transform="translate(247.363281 0)"/>
      <use xlink:href="#DejaVuSans-74" transform="translate(302.34375 0)"/>
      <use xlink:href="#DejaVuSans-65" transform="translate(341.552734 0)"/>
      <use xlink:href="#DejaVuSans-64" transform="translate(403.076172 0)"/>
      <use xlink:href="#DejaVuSans-20" transform="translate(466.552734 0)"/>
      <use xlink:href="#DejaVuSans-50" transform="translate(498.339844 0)"/>
      <use xlink:href="#DejaVuSans-61" transform="translate(554.142578 0)"/>
      <use xlink:href="#DejaVuSans-63" transform="translate(615.421875 0)"/>
      <use xlink:href="#DejaVuSans-6b" transform="translate(670.402344 0)"/>
      <use xlink:href="#DejaVuSans-65" transform="translate(724.6875 0)"/>
      <use xlink:href="#DejaVuSans-74" transform="translate(786.210938 0)"/>
      <use xlink:href="#DejaVuSans-73" transform="translate(825.419922 0)"/>
      <use xlink:href="#DejaVuSans-20" transform="translate(877.519531 0)"/>
      <use xlink:href="#DejaVuSans-70" transform="translate(909.306641 0)"/>
      <use xlink:href="#DejaVuSans-65" transform="translate(972.783203 0)"/>
      <use xlink:href="#DejaVuSans-72" transform="translate(1034.306641 0)"/>
      <use xlink:href="#DejaVuSans-20" transform="translate(1075.419922 0)"/>
      <use xlink:href="#DejaVuSans-53" transform="translate(1107.207031 0)"/>
      <use xlink:href="#DejaVuSans-65" transform="translate(1170.683594 0)"/>
      <use xlink:href="#DejaVuSans-63" transform="translate(1232.207031 0)"/>
      <use xlink:href="#DejaVuSans-6f" transform="translate(1287.1875 0)"/>
      <use xlink:href="#DejaVuSans-6e" transform="translate(1348.369141 0)"/>
      <use xlink:href="#DejaVuSans-64" transform="translate(1411.748047 0)"/>
      <use xlink:href="#DejaVuSans-20" transform="translate(1475.224609 0)"/>
      <use xlink:href="#DejaVuSans-28" transform="translate(1507.011719 0)"/>
      <use xlink:href="#DejaVuSans-70" transform="translate(1546.025391 0)"/>
      <use xlink:href="#DejaVuSans-70" transform="translate(1609.501953 0)"/>
      <use xlink:href="#DejaVuSans-73" transform="translate(1672.978516 0)"/>
      <use xlink:href="#DejaVuSans-29" transform="translate(1725.078125 0)"/>
     </g>
    </g>
   </g>
   <g id="matplotlib.axis_2">
    <g id="ytick_1">
     <g id="line2d_19">
      <path d="M 77.33 305.474436 
L 637.2 305.474436 
" clip-path="url(#p71b135c425)" style="fill: none; stroke-dasharray: 2.96,1.28; stroke-dashoffset: 0; stroke: #b0b0b0; stroke-opacity: 0.4; stroke-width: 0.8"/>
     </g>
     <g id="line2d_20">
      <defs>
       <path id="m8b5ef12018" d="M 0 0 
L -3.5 0 
" style="stroke: #000000; stroke-width: 0.8"/>
      </defs>
      <g>
       <use xlink:href="#m8b5ef12018" x="77.33" y="305.474436" style="stroke: #000000; stroke-width: 0.8"/>
      </g>
     </g>
     <g id="text_11">
      <!-- 0 -->
      <g transform="translate(63.9675 309.273655) scale(0.1 -0.1)">
       <use xlink:href="#DejaVuSans-30"/>
      </g>
     </g>
    </g>
    <g id="ytick_2">
     <g id="line2d_21">
      <path d="M 77.33 272.386268 
L 637.2 272.386268 
" clip-path="url(#p71b135c425)" style="fill: none; stroke-dasharray: 2.96,1.28; stroke-dashoffset: 0; stroke: #b0b0b0; stroke-opacity: 0.4; stroke-width: 0.8"/>
     </g>
     <g id="line2d_22">
      <g>
       <use xlink:href="#m8b5ef12018" x="77.33" y="272.386268" style="stroke: #000000; stroke-width: 0.8"/>
      </g>
     </g>
     <g id="text_12">
      <!-- 250000 -->
      <g transform="translate(32.155 276.185486) scale(0.1 -0.1)">
       <use xlink:href="#DejaVuSans-32"/>
       <use xlink:href="#DejaVuSans-35" transform="translate(63.623047 0)"/>
       <use xlink:href="#DejaVuSans-30" transform="translate(127.246094 0)"/>
       <use xlink:href="#DejaVuSans-30" transform="translate(190.869141 0)"/>
       <use xlink:href="#DejaVuSans-30" transform="translate(254.492188 0)"/>
       <use xlink:href="#DejaVuSans-30" transform="translate(318.115234 0)"/>
      </g>
     </g>
    </g>
    <g id="ytick_3">
     <g id="line2d_23">
      <path d="M 77.33 239.2981 
L 637.2 239.2981 
" clip-path="url(#p71b135c425)" style="fill: none; stroke-dasharray: 2.96,1.28; stroke-dashoffset: 0; stroke: #b0b0b0; stroke-opacity: 0.4; stroke-width: 0.8"/>
     </g>
     <g id="line2d_24">
      <g>
       <use xlink:href="#m8b5ef12018" x="77.33" y="239.2981" style="stroke: #000000; stroke-width: 0.8"/>
      </g>
     </g>
     <g id="text_13">
      <!-- 500000 -->
      <g transform="translate(32.155 243.097318) scale(0.1 -0.1)">
       <use xlink:href="#DejaVuSans-35"/>
       <use xlink:href="#DejaVuSans-30" transform="translate(63.623047 0)"/>
       <use xlink:href="#DejaVuSans-30" transform="translate(127.246094 0)"/>
       <use xlink:href="#DejaVuSans-30" transform="translate(190.869141 0)"/>
       <use xlink:href="#DejaVuSans-30" transform="translate(254.492188 0)"/>
       <use xlink:href="#DejaVuSans-30" transform="translate(318.115234 0)"/>
      </g>
     </g>
    </g>
    <g id="ytick_4">
     <g id="line2d_25">
      <path d="M 77.33 206.209931 
L 637.2 206.209931 
" clip-path="url(#p71b135c425)" style="fill: none; stroke-dasharray: 2.96,1.28; stroke-dashoffset: 0; stroke: #b0b0b0; stroke-opacity: 0.4; stroke-width: 0.8"/>
     </g>
     <g id="line2d_26">
      <g>
       <use xlink:href="#m8b5ef12018" x="77.33" y="206.209931" style="stroke: #000000; stroke-width: 0.8"/>
      </g>
     </g>
     <g id="text_14">
      <!-- 750000 -->
      <g transform="translate(32.155 210.00915) scale(0.1 -0.1)">
       <use xlink:href="#DejaVuSans-37"/>
       <use xlink:href="#DejaVuSans-35" transform="translate(63.623047 0)"/>
       <use xlink:href="#DejaVuSans-30" transform="translate(127.246094 0)"/>
       <use xlink:href="#DejaVuSans-30" transform="translate(190.869141 0)"/>
       <use xlink:href="#DejaVuSans-30" transform="translate(254.492188 0)"/>
       <use xlink:href="#DejaVuSans-30" transform="translate(318.115234 0)"/>
      </g>
     </g>
    </g>
    <g id="ytick_5">
     <g id="line2d_27">
      <path d="M 77.33 173.121763 
L 637.2 173.121763 
" clip-path="url(#p71b135c425)" style="fill: none; stroke-dasharray: 2.96,1.28; stroke-dashoffset: 0; stroke: #b0b0b0; stroke-opacity: 0.4; stroke-width: 0.8"/>
     </g>
     <g id="line2d_28">
      <g>
       <use xlink:href="#m8b5ef12018" x="77.33" y="173.121763" style="stroke: #000000; stroke-width: 0.8"/>
      </g>
     </g>
     <g id="text_15">
      <!-- 1000000 -->
      <g transform="translate(25.7925 176.920982) scale(0.1 -0.1)">
       <use xlink:href="#DejaVuSans-31"/>
       <use xlink:href="#DejaVuSans-30" transform="translate(63.623047 0)"/>
       <use xlink:href="#DejaVuSans-30" transform="translate(127.246094 0)"/>
       <use xlink:href="#DejaVuSans-30" transform="translate(190.869141 0)"/>
       <use xlink:href="#DejaVuSans-30" transform="translate(254.492188 0)"/>
       <use xlink:href="#DejaVuSans-30" transform="translate(318.115234 0)"/>
       <use xlink:href="#DejaVuSans-30" transform="translate(381.738281 0)"/>
      </g>
     </g>
    </g>
    <g id="ytick_6">
     <g id="line2d_29">
      <path d="M 77.33 140.033595 
L 637.2 140.033595 
" clip-path="url(#p71b135c425)" style="fill: none; stroke-dasharray: 2.96,1.28; stroke-dashoffset: 0; stroke: #b0b0b0; stroke-opacity: 0.4; stroke-width: 0.8"/>
     </g>
     <g id="line2d_30">
      <g>
       <use xlink:href="#m8b5ef12018" x="77.33" y="140.033595" style="stroke: #000000; stroke-width: 0.8"/>
      </g>
     </g>
     <g id="text_16">
      <!-- 1250000 -->
      <g transform="translate(25.7925 143.832814) scale(0.1 -0.1)">
       <use xlink:href="#DejaVuSans-31"/>
       <use xlink:href="#DejaVuSans-32" transform="translate(63.623047 0)"/>
       <use xlink:href="#DejaVuSans-35" transform="translate(127.246094 0)"/>
       <use xlink:href="#DejaVuSans-30" transform="translate(190.869141 0)"/>
       <use xlink:href="#DejaVuSans-30" transform="translate(254.492188 0)"/>
       <use xlink:href="#DejaVuSans-30" transform="translate(318.115234 0)"/>
       <use xlink:href="#DejaVuSans-30" transform="translate(381.738281 0)"/>
      </g>
     </g>
    </g>
    <g id="ytick_7">
     <g id="line2d_31">
      <path d="M 77.33 106.945427 
L 637.2 106.945427 
" clip-path="url(#p71b135c425)" style="fill: none; stroke-dasharray: 2.96,1.28; stroke-dashoffset: 0; stroke: #b0b0b0; stroke-opacity: 0.4; stroke-width: 0.8"/>
     </g>
     <g id="line2d_32">
      <g>
       <use xlink:href="#m8b5ef12018" x="77.33" y="106.945427" style="stroke: #000000; stroke-width: 0.8"/>
      </g>
     </g>
     <g id="text_17">
      <!-- 1500000 -->
      <g transform="translate(25.7925 110.744646) scale(0.1 -0.1)">
       <use xlink:href="#DejaVuSans-31"/>
       <use xlink:href="#DejaVuSans-35" transform="translate(63.623047 0)"/>
       <use xlink:href="#DejaVuSans-30" transform="translate(127.246094 0)"/>
       <use xlink:href="#DejaVuSans-30" transform="translate(190.869141 0)"/>
       <use xlink:href="#DejaVuSans-30" transform="translate(254.492188 0)"/>
       <use xlink:href="#DejaVuSans-30" transform="translate(318.115234 0)"/>
       <use xlink:href="#DejaVuSans-30" transform="translate(381.738281 0)"/>
      </g>
     </g>
    </g>
    <g id="ytick_8">
     <g id="line2d_33">
      <path d="M 77.33 73.857259 
L 637.2 73.857259 
" clip-path="url(#p71b135c425)" style="fill: none; stroke-dasharray: 2.96,1.28; stroke-dashoffset: 0; stroke: #b0b0b0; stroke-opacity: 0.4; stroke-width: 0.8"/>
     </g>
     <g id="line2d_34">
      <g>
       <use xlink:href="#m8b5ef12018" x="77.33" y="73.857259" style="stroke: #000000; stroke-width: 0.8"/>
      </g>
     </g>
     <g id="text_18">
      <!-- 1750000 -->
      <g transform="translate(25.7925 77.656478) scale(0.1 -0.1)">
       <use xlink:href="#DejaVuSans-31"/>
       <use xlink:href="#DejaVuSans-37" transform="translate(63.623047 0)"/>
       <use xlink:href="#DejaVuSans-35" transform="translate(127.246094 0)"/>
       <use xlink:href="#DejaVuSans-30" transform="translate(190.869141 0)"/>
       <use xlink:href="#DejaVuSans-30" transform="translate(254.492188 0)"/>
       <use xlink:href="#DejaVuSans-30" transform="translate(318.115234 0)"/>
       <use xlink:href="#DejaVuSans-30" transform="translate(381.738281 0)"/>
      </g>
     </g>
    </g>
    <g id="ytick_9">
     <g id="line2d_35">
      <path d="M 77.33 40.769091 
L 637.2 40.769091 
" clip-path="url(#p71b135c425)" style="fill: none; stroke-dasharray: 2.96,1.28; stroke-dashoffset: 0; stroke: #b0b0b0; stroke-opacity: 0.4; stroke-width: 0.8"/>
     </g>
     <g id="line2d_36">
      <g>
       <use xlink:href="#m8b5ef12018" x="77.33" y="40.769091" style="stroke: #000000; stroke-width: 0.8"/>
      </g>
     </g>
     <g id="text_19">
      <!-- 2000000 -->
      <g transform="translate(25.7925 44.56831) scale(0.1 -0.1)">
       <use xlink:href="#DejaVuSans-32"/>
       <use xlink:href="#DejaVuSans-30" transform="translate(63.623047 0)"/>
       <use xlink:href="#DejaVuSans-30" transform="translate(127.246094 0)"/>
       <use xlink:href="#DejaVuSans-30" transform="translate(190.869141 0)"/>
       <use xlink:href="#DejaVuSans-30" transform="translate(254.492188 0)"/>
       <use xlink:href="#DejaVuSans-30" transform="translate(318.115234 0)"/>
       <use xlink:href="#DejaVuSans-30" transform="translate(381.738281 0)"/>
      </g>
     </g>
    </g>
    <g id="text_20">
     <!-- Observed Packets per Second (pps) -->
     <g transform="translate(19.296875 279.182188) rotate(-90) scale(0.12 -0.12)">
      <defs>
       <path id="DejaVuSans-4f" d="M 2522 4238 
Q 1834 4238 1429 3725 
Q 1025 3213 1025 2328 
Q 1025 1447 1429 934 
Q 1834 422 2522 422 
Q 3209 422 3611 934 
Q 4013 1447 4013 2328 
Q 4013 3213 3611 3725 
Q 3209 4238 2522 4238 
z
M 2522 4750 
Q 3503 4750 4090 4092 
Q 4678 3434 4678 2328 
Q 4678 1225 4090 567 
Q 3503 -91 2522 -91 
Q 1538 -91 948 565 
Q 359 1222 359 2328 
Q 359 3434 948 4092 
Q 1538 4750 2522 4750 
z
" transform="scale(0.015625)"/>
       <path id="DejaVuSans-62" d="M 3116 1747 
Q 3116 2381 2855 2742 
Q 2594 3103 2138 3103 
Q 1681 3103 1420 2742 
Q 1159 2381 1159 1747 
Q 1159 1113 1420 752 
Q 1681 391 2138 391 
Q 2594 391 2855 752 
Q 3116 1113 3116 1747 
z
M 1159 2969 
Q 1341 3281 1617 3432 
Q 1894 3584 2278 3584 
Q 2916 3584 3314 3078 
Q 3713 2572 3713 1747 
Q 3713 922 3314 415 
Q 2916 -91 2278 -91 
Q 1894 -91 1617 61 
Q 1341 213 1159 525 
L 1159 0 
L 581 0 
L 581 4863 
L 1159 4863 
L 1159 2969 
z
" transform="scale(0.015625)"/>
       <path id="DejaVuSans-76" d="M 191 3500 
L 800 3500 
L 1894 563 
L 2988 3500 
L 3597 3500 
L 2284 0 
L 1503 0 
L 191 3500 
z
" transform="scale(0.015625)"/>
      </defs>
      <use xlink:href="#DejaVuSans-4f"/>
      <use xlink:href="#DejaVuSans-62" transform="translate(78.710938 0)"/>
      <use xlink:href="#DejaVuSans-73" transform="translate(142.1875 0)"/>
      <use xlink:href="#DejaVuSans-65" transform="translate(194.287109 0)"/>
      <use xlink:href="#DejaVuSans-72" transform="translate(255.810547 0)"/>
      <use xlink:href="#DejaVuSans-76" transform="translate(296.923828 0)"/>
      <use xlink:href="#DejaVuSans-65" transform="translate(356.103516 0)"/>
      <use xlink:href="#DejaVuSans-64" transform="translate(417.626953 0)"/>
      <use xlink:href="#DejaVuSans-20" transform="translate(481.103516 0)"/>
      <use xlink:href="#DejaVuSans-50" transform="translate(512.890625 0)"/>
      <use xlink:href="#DejaVuSans-61" transform="translate(568.693359 0)"/>
      <use xlink:href="#DejaVuSans-63" transform="translate(629.972656 0)"/>
      <use xlink:href="#DejaVuSans-6b" transform="translate(684.953125 0)"/>
      <use xlink:href="#DejaVuSans-65" transform="translate(739.238281 0)"/>
      <use xlink:href="#DejaVuSans-74" transform="translate(800.761719 0)"/>
      <use xlink:href="#DejaVuSans-73" transform="translate(839.970703 0)"/>
      <use xlink:href="#DejaVuSans-20" transform="translate(892.070312 0)"/>
      <use xlink:href="#DejaVuSans-70" transform="translate(923.857422 0)"/>
      <use xlink:href="#DejaVuSans-65" transform="translate(987.333984 0)"/>
      <use xlink:href="#DejaVuSans-72" transform="translate(1048.857422 0)"/>
      <use xlink:href="#DejaVuSans-20" transform="translate(1089.970703 0)"/>
      <use xlink:href="#DejaVuSans-53" transform="translate(1121.757812 0)"/>
      <use xlink:href="#DejaVuSans-65" transform="translate(1185.234375 0)"/>
      <use xlink:href="#DejaVuSans-63" transform="translate(1246.757812 0)"/>
      <use xlink:href="#DejaVuSans-6f" transform="translate(1301.738281 0)"/>
      <use xlink:href="#DejaVuSans-6e" transform="translate(1362.919922 0)"/>
      <use xlink:href="#DejaVuSans-64" transform="translate(1426.298828 0)"/>
      <use xlink:href="#DejaVuSans-20" transform="translate(1489.775391 0)"/>
      <use xlink:href="#DejaVuSans-28" transform="translate(1521.5625 0)"/>
      <use xlink:href="#DejaVuSans-70" transform="translate(1560.576172 0)"/>
      <use xlink:href="#DejaVuSans-70" transform="translate(1624.052734 0)"/>
      <use xlink:href="#DejaVuSans-73" transform="translate(1687.529297 0)"/>
      <use xlink:href="#DejaVuSans-29" transform="translate(1739.628906 0)"/>
     </g>
    </g>
   </g>
   <g id="line2d_37">
    <path d="M 102.778636 302.562703 
L 105.336288 302.165663 
L 105.336288 301.882063 
L 107.89394 301.669363 
L 107.89394 301.3569 
L 110.451592 300.768681 
L 110.451592 300.180579 
L 110.451592 299.592418 
L 113.009244 299.151243 
L 113.009244 298.710067 
L 115.566896 298.268877 
L 115.566896 297.68101 
L 115.566896 297.092879 
L 115.566896 296.651674 
L 118.124548 296.210499 
L 120.6822 295.769308 
L 120.6822 295.328089 
L 120.6822 294.740296 
L 120.6822 294.152209 
L 123.239852 293.711092 
L 123.239852 293.416607 
L 125.797503 292.829064 
L 125.797503 292.241536 
L 125.797503 291.653552 
L 125.797503 291.21245 
L 130.912807 290.771186 
L 130.912807 290.184452 
L 130.912807 289.596218 
L 130.912807 288.862455 
L 130.912807 288.127809 
L 136.028111 287.541178 
L 136.028111 286.95412 
L 138.585763 286.365636 
L 138.585763 285.632564 
L 141.143415 284.753713 
L 141.143415 284.16617 
L 141.143415 283.57951 
L 143.701067 282.846702 
L 146.258719 282.11463 
L 146.258719 281.526602 
L 146.258719 280.937662 
L 151.374022 280.349987 
L 151.374022 279.759076 
L 151.374022 278.880857 
L 151.374022 278.002286 
L 151.374022 277.121935 
L 153.931674 276.530627 
L 161.60463 275.938393 
L 161.60463 275.204586 
L 161.60463 274.183588 
L 161.60463 273.020163 
L 161.60463 271.990519 
L 164.162282 271.112726 
L 169.277586 270.23289 
L 171.835238 269.351877 
L 171.835238 268.468158 
L 176.950541 267.295631 
L 176.950541 266.262133 
L 176.950541 265.240297 
L 176.950541 264.19702 
L 182.065845 263.042963 
L 182.065845 262.164288 
L 187.181149 261.276687 
L 189.738801 259.836499 
L 192.296453 258.39159 
L 192.296453 257.221784 
L 192.296453 256.045595 
L 202.52706 255.146082 
L 202.52706 254.138981 
L 202.52706 253.233557 
L 202.52706 251.918736 
L 202.52706 250.179386 
L 207.642364 248.982301 
L 207.642364 247.791832 
L 215.31532 246.384453 
L 222.988275 244.913588 
L 222.988275 243.331106 
L 222.988275 241.605933 
L 228.103579 239.574246 
L 228.103579 237.931117 
L 230.661231 236.246238 
L 238.334187 234.543609 
L 243.449491 232.809216 
L 243.449491 231.302233 
L 253.680098 229.325532 
L 253.680098 226.882272 
L 253.680098 224.511394 
L 253.680098 222.426104 
L 263.910706 220.128212 
L 274.141313 218.262436 
L 279.256617 215.449604 
L 279.256617 212.570345 
L 284.371921 209.688395 
L 284.371921 206.694607 
L 304.833136 204.244833 
L 304.833136 202.040749 
L 304.833136 199.122122 
L 315.063744 195.63335 
L 315.063744 191.796343 
L 317.621396 189.365127 
L 330.409655 186.352604 
L 345.755566 183.024229 
L 350.87087 180.392925 
L 355.986174 177.846695 
L 355.986174 174.55979 
L 361.101478 174.212452 
L 376.447389 173.275278 
L 386.677997 172.834602 
L 404.58156 171.89281 
L 407.139212 172.85119 
L 407.139212 172.218662 
L 422.485123 172.227236 
L 448.061642 172.219162 
L 458.29225 172.856749 
L 458.29225 171.495575 
L 491.541725 171.917148 
L 509.445288 171.937869 
L 535.021807 172.060068 
L 560.598326 170.397284 
L 611.751364 171.514181 
" clip-path="url(#p71b135c425)" style="fill: none; stroke: #1f77b4; stroke-width: 2.5; stroke-linecap: square"/>
   </g>
   <g id="line2d_38">
    <path d="M 102.778636 304.150909 
L 105.336288 302.827382 
L 105.336288 302.827382 
L 107.89394 301.503856 
L 107.89394 301.503856 
L 110.451592 300.180329 
L 110.451592 300.180329 
L 110.451592 300.180329 
L 113.009244 298.856802 
L 113.009244 298.856802 
L 115.566896 297.533275 
L 115.566896 297.533275 
L 115.566896 297.533275 
L 115.566896 297.533275 
L 118.124548 296.209749 
L 120.6822 294.886222 
L 120.6822 294.886222 
L 120.6822 294.886222 
L 120.6822 294.886222 
L 123.239852 293.562695 
L 123.239852 293.562695 
L 125.797503 292.239169 
L 125.797503 292.239169 
L 125.797503 292.239169 
L 125.797503 292.239169 
L 130.912807 289.592115 
L 130.912807 289.592115 
L 130.912807 289.592115 
L 130.912807 289.592115 
L 130.912807 289.592115 
L 136.028111 286.945062 
L 136.028111 286.945062 
L 138.585763 285.621535 
L 138.585763 285.621535 
L 141.143415 284.298008 
L 141.143415 284.298008 
L 141.143415 284.298008 
L 143.701067 282.974481 
L 146.258719 281.650955 
L 146.258719 281.650955 
L 146.258719 281.650955 
L 151.374022 279.003901 
L 151.374022 279.003901 
L 151.374022 279.003901 
L 151.374022 279.003901 
L 151.374022 279.003901 
L 153.931674 277.680375 
L 161.60463 273.709794 
L 161.60463 273.709794 
L 161.60463 273.709794 
L 161.60463 273.709794 
L 161.60463 273.709794 
L 164.162282 272.386268 
L 169.277586 269.739214 
L 171.835238 268.415688 
L 171.835238 268.415688 
L 176.950541 265.768634 
L 176.950541 265.768634 
L 176.950541 265.768634 
L 176.950541 265.768634 
L 182.065845 263.121581 
L 182.065845 263.121581 
L 187.181149 260.474527 
L 189.738801 259.151 
L 192.296453 257.827474 
L 192.296453 257.827474 
L 192.296453 257.827474 
L 202.52706 252.533367 
L 202.52706 252.533367 
L 202.52706 252.533367 
L 202.52706 252.533367 
L 202.52706 252.533367 
L 207.642364 249.886313 
L 207.642364 249.886313 
L 215.31532 245.915733 
L 222.988275 241.945153 
L 222.988275 241.945153 
L 222.988275 241.945153 
L 228.103579 239.2981 
L 228.103579 239.2981 
L 230.661231 237.974573 
L 238.334187 234.003993 
L 243.449491 231.356939 
L 243.449491 231.356939 
L 253.680098 226.062832 
L 253.680098 226.062832 
L 253.680098 226.062832 
L 253.680098 226.062832 
L 263.910706 220.768725 
L 274.141313 215.474619 
L 279.256617 212.827565 
L 279.256617 212.827565 
L 284.371921 210.180512 
L 284.371921 210.180512 
L 304.833136 199.592298 
L 304.833136 199.592298 
L 304.833136 199.592298 
L 315.063744 194.298191 
L 315.063744 194.298191 
L 317.621396 192.974664 
L 330.409655 186.357031 
L 345.755566 178.41587 
L 350.87087 175.768817 
L 355.986174 173.121763 
L 355.986174 173.121763 
L 361.101478 170.47471 
L 376.447389 162.53355 
L 386.677997 157.239443 
L 404.58156 147.974756 
L 407.139212 146.651229 
L 407.139212 146.651229 
L 422.485123 138.710069 
L 448.061642 125.474801 
L 458.29225 120.180694 
L 458.29225 120.180694 
L 491.541725 102.974847 
L 509.445288 93.71016 
L 535.021807 80.474893 
L 560.598326 67.239625 
L 611.751364 40.769091 
" clip-path="url(#p71b135c425)" style="fill: none; stroke-dasharray: 3.7,1.6; stroke-dashoffset: 0; stroke: #ff7f0e"/>
   </g>
   <g id="line2d_39">
    <path d="M 355.986174 317.32 
L 355.986174 27.6 
" clip-path="url(#p71b135c425)" style="fill: none; stroke-dasharray: 1.5,2.475; stroke-dashoffset: 0; stroke: #ff0000; stroke-opacity: 0.6; stroke-width: 1.5"/>
   </g>
   <g id="patch_3">
    <path d="M 77.33 317.32 
L 77.33 27.6 
" style="fill: none; stroke: #000000; stroke-width: 0.8; stroke-linejoin: miter; stroke-linecap: square"/>
   </g>
   <g id="patch_4">
    <path d="M 637.2 317.32 
L 637.2 27.6 
" style="fill: none; stroke: #000000; stroke-width: 0.8; stroke-linejoin: miter; stroke-linecap: square"/>
   </g>
   <g id="patch_5">
    <path d="M 77.33 317.32 
L 637.2 317.32 
" style="fill: none; stroke: #000000; stroke-width: 0.8; stroke-linejoin: miter; stroke-linecap: square"/>
   </g>
   <g id="patch_6">
    <path d="M 77.33 27.6 
L 637.2 27.6 
" style="fill: none; stroke: #000000; stroke-width: 0.8; stroke-linejoin: miter; stroke-linecap: square"/>
   </g>
   <g id="text_21">
    <!-- Intentra Throughput Saturation Behavior -->
    <g transform="translate(214.460625 21.6) scale(0.14 -0.14)">
     <defs>
      <path id="DejaVuSans-49" d="M 628 4666 
L 1259 4666 
L 1259 0 
L 628 0 
L 628 4666 
z
" transform="scale(0.015625)"/>
      <path id="DejaVuSans-54" d="M -19 4666 
L 3928 4666 
L 3928 4134 
L 2272 4134 
L 2272 0 
L 1638 0 
L 1638 4134 
L -19 4134 
L -19 4666 
z
" transform="scale(0.015625)"/>
      <path id="DejaVuSans-68" d="M 3513 2113 
L 3513 0 
L 2938 0 
L 2938 2094 
Q 2938 2591 2744 2837 
Q 2550 3084 2163 3084 
Q 1697 3084 1428 2787 
Q 1159 2491 1159 1978 
L 1159 0 
L 581 0 
L 581 4863 
L 1159 4863 
L 1159 2956 
Q 1366 3272 1645 3428 
Q 1925 3584 2291 3584 
Q 2894 3584 3203 3211 
Q 3513 2838 3513 2113 
z
" transform="scale(0.015625)"/>
      <path id="DejaVuSans-75" d="M 544 1381 
L 544 3500 
L 1119 3500 
L 1119 1403 
Q 1119 906 1312 657 
Q 1506 409 1894 409 
Q 2359 409 2629 706 
Q 2900 1003 2900 1516 
L 2900 3500 
L 3475 3500 
L 3475 0 
L 2900 0 
L 2900 538 
Q 2691 219 2414 64 
Q 2138 -91 1772 -91 
Q 1169 -91 856 284 
Q 544 659 544 1381 
z
M 1991 3584 
L 1991 3584 
z
" transform="scale(0.015625)"/>
      <path id="DejaVuSans-67" d="M 2906 1791 
Q 2906 2416 2648 2759 
Q 2391 3103 1925 3103 
Q 1463 3103 1205 2759 
Q 947 2416 947 1791 
Q 947 1169 1205 825 
Q 1463 481 1925 481 
Q 2391 481 2648 825 
Q 2906 1169 2906 1791 
z
M 3481 434 
Q 3481 -459 3084 -895 
Q 2688 -1331 1869 -1331 
Q 1566 -1331 1297 -1286 
Q 1028 -1241 775 -1147 
L 775 -588 
Q 1028 -725 1275 -790 
Q 1522 -856 1778 -856 
Q 2344 -856 2625 -561 
Q 2906 -266 2906 331 
L 2906 616 
Q 2728 306 2450 153 
Q 2172 0 1784 0 
Q 1141 0 747 490 
Q 353 981 353 1791 
Q 353 2603 747 3093 
Q 1141 3584 1784 3584 
Q 2172 3584 2450 3431 
Q 2728 3278 2906 2969 
L 2906 3500 
L 3481 3500 
L 3481 434 
z
" transform="scale(0.015625)"/>
      <path id="DejaVuSans-69" d="M 603 3500 
L 1178 3500 
L 1178 0 
L 603 0 
L 603 3500 
z
M 603 4863 
L 1178 4863 
L 1178 4134 
L 603 4134 
L 603 4863 
z
" transform="scale(0.015625)"/>
      <path id="DejaVuSans-42" d="M 1259 2228 
L 1259 519 
L 2272 519 
Q 2781 519 3026 730 
Q 3272 941 3272 1375 
Q 3272 1813 3026 2020 
Q 2781 2228 2272 2228 
L 1259 2228 
z
M 1259 4147 
L 1259 2741 
L 2194 2741 
Q 2656 2741 2882 2914 
Q 3109 3088 3109 3444 
Q 3109 3797 2882 3972 
Q 2656 4147 2194 4147 
L 1259 4147 
z
M 628 4666 
L 2241 4666 
Q 2963 4666 3353 4366 
Q 3744 4066 3744 3513 
Q 3744 3084 3544 2831 
Q 3344 2578 2956 2516 
Q 3422 2416 3680 2098 
Q 3938 1781 3938 1306 
Q 3938 681 3513 340 
Q 3088 0 2303 0 
L 628 0 
L 628 4666 
z
" transform="scale(0.015625)"/>
     </defs>
     <use xlink:href="#DejaVuSans-49"/>
     <use xlink:href="#DejaVuSans-6e" transform="translate(29.492188 0)"/>
     <use xlink:href="#DejaVuSans-74" transform="translate(92.871094 0)"/>
     <use xlink:href="#DejaVuSans-65" transform="translate(132.080078 0)"/>
     <use xlink:href="#DejaVuSans-6e" transform="translate(193.603516 0)"/>
     <use xlink:href="#DejaVuSans-74" transform="translate(256.982422 0)"/>
     <use xlink:href="#DejaVuSans-72" transform="translate(296.191406 0)"/>
     <use xlink:href="#DejaVuSans-61" transform="translate(337.304688 0)"/>
     <use xlink:href="#DejaVuSans-20" transform="translate(398.583984 0)"/>
     <use xlink:href="#DejaVuSans-54" transform="translate(430.371094 0)"/>
     <use xlink:href="#DejaVuSans-68" transform="translate(491.455078 0)"/>
     <use xlink:href="#DejaVuSans-72" transform="translate(554.833984 0)"/>
     <use xlink:href="#DejaVuSans-6f" transform="translate(593.697266 0)"/>
     <use xlink:href="#DejaVuSans-75" transform="translate(654.878906 0)"/>
     <use xlink:href="#DejaVuSans-67" transform="translate(718.257812 0)"/>
     <use xlink:href="#DejaVuSans-68" transform="translate(781.734375 0)"/>
     <use xlink:href="#DejaVuSans-70" transform="translate(845.113281 0)"/>
     <use xlink:href="#DejaVuSans-75" transform="translate(908.589844 0)"/>
     <use xlink:href="#DejaVuSans-74" transform="translate(971.96875 0)"/>
     <use xlink:href="#DejaVuSans-20" transform="translate(1011.177734 0)"/>
     <use xlink:href="#DejaVuSans-53" transform="translate(1042.964844 0)"/>
     <use xlink:href="#DejaVuSans-61" transform="translate(1106.441406 0)"/>
     <use xlink:href="#DejaVuSans-74" transform="translate(1167.720703 0)"/>
     <use xlink:href="#DejaVuSans-75" transform="translate(1206.929688 0)"/>
     <use xlink:href="#DejaVuSans-72" transform="translate(1270.308594 0)"/>
     <use xlink:href="#DejaVuSans-61" transform="translate(1311.421875 0)"/>
     <use xlink:href="#DejaVuSans-74" transform="translate(1372.701172 0)"/>
     <use xlink:href="#DejaVuSans-69" transform="translate(1411.910156 0)"/>
     <use xlink:href="#DejaVuSans-6f" transform="translate(1439.693359 0)"/>
     <use xlink:href="#DejaVuSans-6e" transform="translate(1500.875 0)"/>
     <use xlink:href="#DejaVuSans-20" transform="translate(1564.253906 0)"/>
     <use xlink:href="#DejaVuSans-42" transform="translate(1596.041016 0)"/>
     <use xlink:href="#DejaVuSans-65" transform="translate(1664.644531 0)"/>
     <use xlink:href="#DejaVuSans-68" transform="translate(1726.167969 0)"/>
     <use xlink:href="#DejaVuSans-61" transform="translate(1789.546875 0)"/>
     <use xlink:href="#DejaVuSans-76" transform="translate(1850.826172 0)"/>
     <use xlink:href="#DejaVuSans-69" transform="translate(1910.005859 0)"/>
     <use xlink:href="#DejaVuSans-6f" transform="translate(1937.789062 0)"/>
     <use xlink:href="#DejaVuSans-72" transform="translate(1998.970703 0)"/>
    </g>
   </g>
   <g id="legend_1">
    <g id="patch_7">
     <path d="M 84.33 94.3125 
L 217.231562 94.3125 
Q 219.231562 94.3125 219.231562 92.3125 
L 219.231562 34.6 
Q 219.231562 32.6 217.231562 32.6 
L 84.33 32.6 
Q 82.33 32.6 82.33 34.6 
L 82.33 92.3125 
Q 82.33 94.3125 84.33 94.3125 
z
" style="fill: #ffffff; opacity: 0.8; stroke: #cccccc; stroke-linejoin: miter"/>
    </g>
    <g id="PathCollection_2">
     <g>
      <use xlink:href="#m6919faa818" x="96.33" y="41.573438" style="fill: #1f77b4; fill-opacity: 0.35; stroke: #1f77b4; stroke-opacity: 0.35"/>
     </g>
    </g>
    <g id="text_22">
     <!-- Measured -->
     <g transform="translate(114.33 44.198438) scale(0.1 -0.1)">
      <defs>
       <path id="DejaVuSans-4d" d="M 628 4666 
L 1569 4666 
L 2759 1491 
L 3956 4666 
L 4897 4666 
L 4897 0 
L 4281 0 
L 4281 4097 
L 3078 897 
L 2444 897 
L 1241 4097 
L 1241 0 
L 628 0 
L 628 4666 
z
" transform="scale(0.015625)"/>
      </defs>
      <use xlink:href="#DejaVuSans-4d"/>
      <use xlink:href="#DejaVuSans-65" transform="translate(86.279297 0)"/>
      <use xlink:href="#DejaVuSans-61" transform="translate(147.802734 0)"/>
      <use xlink:href="#DejaVuSans-73" transform="translate(209.082031 0)"/>
      <use xlink:href="#DejaVuSans-75" transform="translate(261.181641 0)"/>
      <use xlink:href="#DejaVuSans-72" transform="translate(324.560547 0)"/>
      <use xlink:href="#DejaVuSans-65" transform="translate(363.423828 0)"/>
      <use xlink:href="#DejaVuSans-64" transform="translate(424.947266 0)"/>
     </g>
    </g>
    <g id="line2d_40">
     <path d="M 86.33 55.376563 
L 96.33 55.376563 
L 106.33 55.376563 
" style="fill: none; stroke: #1f77b4; stroke-width: 2.5; stroke-linecap: square"/>
    </g>
    <g id="text_23">
     <!-- Trend (rolling mean) -->
     <g transform="translate(114.33 58.876563) scale(0.1 -0.1)">
      <defs>
       <path id="DejaVuSans-6c" d="M 603 4863 
L 1178 4863 
L 1178 0 
L 603 0 
L 603 4863 
z
" transform="scale(0.015625)"/>
       <path id="DejaVuSans-6d" d="M 3328 2828 
Q 3544 3216 3844 3400 
Q 4144 3584 4550 3584 
Q 5097 3584 5394 3201 
Q 5691 2819 5691 2113 
L 5691 0 
L 5113 0 
L 5113 2094 
Q 5113 2597 4934 2840 
Q 4756 3084 4391 3084 
Q 3944 3084 3684 2787 
Q 3425 2491 3425 1978 
L 3425 0 
L 2847 0 
L 2847 2094 
Q 2847 2600 2669 2842 
Q 2491 3084 2119 3084 
Q 1678 3084 1418 2786 
Q 1159 2488 1159 1978 
L 1159 0 
L 581 0 
L 581 3500 
L 1159 3500 
L 1159 2956 
Q 1356 3278 1631 3431 
Q 1906 3584 2284 3584 
Q 2666 3584 2933 3390 
Q 3200 3197 3328 2828 
z
" transform="scale(0.015625)"/>
      </defs>
      <use xlink:href="#DejaVuSans-54"/>
      <use xlink:href="#DejaVuSans-72" transform="translate(46.333984 0)"/>
      <use xlink:href="#DejaVuSans-65" transform="translate(85.197266 0)"/>
      <use xlink:href="#DejaVuSans-6e" transform="translate(146.720703 0)"/>
      <use xlink:href="#DejaVuSans-64" transform="translate(210.099609 0)"/>
      <use xlink:href="#DejaVuSans-20" transform="translate(273.576172 0)"/>
      <use xlink:href="#DejaVuSans-28" transform="translate(305.363281 0)"/>
      <use xlink:href="#DejaVuSans-72" transform="translate(344.376953 0)"/>
      <use xlink:href="#DejaVuSans-6f" transform="translate(383.240234 0)"/>
      <use xlink:href="#DejaVuSans-6c" transform="translate(444.421875 0)"/>
      <use xlink:href="#DejaVuSans-6c" transform="translate(472.205078 0)"/>
      <use xlink:href="#DejaVuSans-69" transform="translate(499.988281 0)"/>
      <use xlink:href="#DejaVuSans-6e" transform="translate(527.771484 0)"/>
      <use xlink:href="#DejaVuSans-67" transform="translate(591.150391 0)"/>
      <use xlink:href="#DejaVuSans-20" transform="translate(654.626953 0)"/>
      <use xlink:href="#DejaVuSans-6d" transform="translate(686.414062 0)"/>
      <use xlink:href="#DejaVuSans-65" transform="translate(783.826172 0)"/>
      <use xlink:href="#DejaVuSans-61" transform="translate(845.349609 0)"/>
      <use xlink:href="#DejaVuSans-6e" transform="translate(906.628906 0)"/>
      <use xlink:href="#DejaVuSans-29" transform="translate(970.007812 0)"/>
     </g>
    </g>
    <g id="line2d_41">
     <path d="M 86.33 70.054688 
L 96.33 70.054688 
L 106.33 70.054688 
" style="fill: none; stroke-dasharray: 3.7,1.6; stroke-dashoffset: 0; stroke: #ff7f0e"/>
    </g>
    <g id="text_24">
     <!-- Ideal -->
     <g transform="translate(114.33 73.554688) scale(0.1 -0.1)">
      <use xlink:href="#DejaVuSans-49"/>
      <use xlink:href="#DejaVuSans-64" transform="translate(29.492188 0)"/>
      <use xlink:href="#DejaVuSans-65" transform="translate(92.96875 0)"/>
      <use xlink:href="#DejaVuSans-61" transform="translate(154.492188 0)"/>
      <use xlink:href="#DejaVuSans-6c" transform="translate(215.771484 0)"/>
     </g>
    </g>
    <g id="line2d_42">
     <path d="M 86.33 84.732813 
L 96.33 84.732813 
L 106.33 84.732813 
" style="fill: none; stroke-dasharray: 1.5,2.475; stroke-dashoffset: 0; stroke: #ff0000; stroke-opacity: 0.6; stroke-width: 1.5"/>
    </g>
    <g id="text_25">
     <!-- Saturation knee -->
     <g transform="translate(114.33 88.232813) scale(0.1 -0.1)">
      <use xlink:href="#DejaVuSans-53"/>
      <use xlink:href="#DejaVuSans-61" transform="translate(63.476562 0)"/>
      <use xlink:href="#DejaVuSans-74" transform="translate(124.755859 0)"/>
      <use xlink:href="#DejaVuSans-75" transform="translate(163.964844 0)"/>
      <use xlink:href="#DejaVuSans-72" transform="translate(227.34375 0)"/>
      <use xlink:href="#DejaVuSans-61" transform="translate(268.457031 0)"/>
      <use xlink:href="#DejaVuSans-74" transform="translate(329.736328 0)"/>
      <use xlink:href="#DejaVuSans-69" transform="translate(368.945312 0)"/>
      <use xlink:href="#DejaVuSans-6f" transform="translate(396.728516 0)"/>
      <use xlink:href="#DejaVuSans-6e" transform="translate(457.910156 0)"/>
      <use xlink:href="#DejaVuSans-20" transform="translate(521.289062 0)"/>
      <use xlink:href="#DejaVuSans-6b" transform="translate(553.076172 0)"/>
      <use xlink:href="#DejaVuSans-6e" transform="translate(610.986328 0)"/>
      <use xlink:href="#DejaVuSans-65" transform="translate(674.365234 0)"/>
      <use xlink:href="#DejaVuSans-65" transform="translate(735.888672 0)"/>
     </g>
    </g>
   </g>
  </g>
 </g>
 <defs>
  <clipPath id="p71b135c425">
   <rect x="77.33" y="27.6" width="559.87" height="289.72"/>
  </clipPath>
 </defs>
</svg>
